<?xml version="1.0" encoding="UTF-8" standalone="no"?><!DOCTYPE svg PUBLIC "-//W3C//DTD SVG 1.1//EN" "http://www.w3.org/Graphics/SVG/1.1/DTD/svg11.dtd"><svg width="100%" height="100%" viewBox="0 0 41 25" version="1.1" xmlns="http://www.w3.org/2000/svg" xmlns:xlink="http://www.w3.org/1999/xlink" xml:space="preserve" xmlns:serif="http://www.serif.com/" style="fill-rule:evenodd;clip-rule:evenodd;stroke-linejoin:round;stroke-miterlimit:2;"><g><g><path d="M9.536,5.101c0,-0.276 0.224,-0.5 0.5,-0.5l1.391,0c0.133,0 0.261,0.053 0.355,0.148c0.094,0.094 0.146,0.222 0.145,0.355l-0.02,3.968c-0.001,0.196 0.112,0.373 0.289,0.455c0.178,0.082 0.386,0.054 0.535,-0.073c0.702,-0.566 1.64,-0.882 2.475,-0.882c3.423,-0 5.082,2.692 5.082,5.969c0,3.015 -1.469,5.858 -4.683,5.858c-1.094,-0 -2.27,-0.204 -3.094,-0.918c-0.116,-0.112 -0.287,-0.144 -0.435,-0.082c-0.149,0.063 -0.475,0.704 -0.672,0.704c-0.381,-0.007 -0.957,-0.007 -1.368,-0.007c-0.276,0 -0.5,-0.224 -0.5,-0.5l0,-14.495Zm5.355,5.424c-2.016,0 -3.045,1.584 -3.045,3.971c0,2.257 1.113,3.95 3.045,3.95c2.184,0 3.003,-1.996 3.003,-3.95c-0.001,-2.039 -1.03,-3.971 -3.003,-3.971Z" style="fill:#fff;"/><path d="M29.074,12.631c-0.002,-0 -0.004,-0.002 -0.004,-0.004c-0.19,-1.365 -1.156,-2.102 -2.478,-2.102c-1.239,0 -2.982,0.673 -2.982,4.08c0,1.867 0.798,3.842 2.877,3.842c1.27,-0 2.188,-0.803 2.51,-2.174c0.052,-0.222 0.25,-0.379 0.479,-0.379c0.381,-0.009 0.958,-0.009 1.392,-0.009c0.153,-0 0.297,0.069 0.392,0.188c0.095,0.12 0.13,0.276 0.096,0.424c-0.591,2.52 -2.278,3.902 -4.869,3.902c-3.402,-0 -5.271,-2.495 -5.271,-5.794c0,-3.385 1.785,-6.032 5.355,-6.032c2.333,-0 4.342,1.115 4.811,3.467c0.027,0.143 -0.011,0.29 -0.104,0.402c-0.092,0.111 -0.23,0.176 -0.375,0.176c-0.706,0.013 -1.829,0.013 -1.829,0.013Z" style="fill:#fff;"/></g><path d="M0.879,20.858l6.098,-18c0.275,-0.812 1.037,-1.358 1.894,-1.358l29.347,0c0.646,-0 1.252,0.312 1.627,0.837c0.376,0.525 0.474,1.199 0.265,1.81l-6.158,18c-0.276,0.809 -1.037,1.353 -1.892,1.353l-29.287,-0c-0.644,-0 -1.25,-0.311 -1.625,-0.835c-0.376,-0.523 -0.476,-1.196 -0.269,-1.807Zm1.894,0.642l29.287,-0l6.158,-18l-29.347,-0l-6.098,18Z" style="fill:#fff;"/></g></svg>