<?xml version="1.0" encoding="UTF-8" standalone="no"?><!DOCTYPE svg PUBLIC "-//W3C//DTD SVG 1.1//EN" "http://www.w3.org/Graphics/SVG/1.1/DTD/svg11.dtd"><svg width="100%" height="100%" viewBox="0 0 48 25" version="1.1" xmlns="http://www.w3.org/2000/svg" xmlns:xlink="http://www.w3.org/1999/xlink" xml:space="preserve" xmlns:serif="http://www.serif.com/" style="fill-rule:evenodd;clip-rule:evenodd;stroke-linejoin:round;stroke-miterlimit:2;"><g><g><path d="M10.958,5.524l-0,-2l2.744,0l-0,6.51l0.048,-0c0.747,-1.233 2.311,-1.998 3.707,-1.998c3.923,0 5.825,3.059 5.825,6.783c0,3.426 -1.684,6.657 -5.368,6.657c-1.685,-0 -3.49,-0.418 -4.309,-2.096l-0.047,0l-0,0.542c-0.136,-0.126 -0.265,-0.26 -0.389,-0.402l-0.977,0.978l1.016,0.634l-2.25,0l-0,-15.608c0.688,0 1.294,-0.347 1.654,-0.875l-1.654,0.875Zm6.138,4.732c-2.31,-0 -3.49,1.8 -3.49,4.513c-0,2.564 1.276,4.488 3.49,4.488c2.504,0 3.442,-2.269 3.442,-4.488c-0.001,-1.548 -0.527,-3.042 -1.551,-3.863c0.058,-0.167 0.094,-0.345 0.105,-0.529c-0.464,-0.219 -1.007,-0.341 -1.635,-0.341c-0.118,0 -0.24,0.01 -0.361,0.029l-0,0.191Zm-5.06,10.422l-0.009,-0.015l-0.002,0.002c0.004,0.004 0.007,0.009 0.011,0.013Z" style="fill:#fff;"/><path d="M35.088,12.649l-1.735,-0l-0.005,-0.001c-0.216,-1.553 -1.323,-2.392 -2.84,-2.392c-1.421,-0 -3.418,0.765 -3.418,4.637c-0,2.12 0.914,4.365 3.298,4.365c1.588,-0 2.695,-1.087 2.96,-2.911l2.744,-0c-0.505,3.304 -2.503,5.129 -5.704,5.129c-3.9,-0 -6.042,-2.835 -6.042,-6.583c-0,-3.847 2.046,-6.856 6.138,-6.856c2.888,0 5.344,1.48 5.608,4.612l-0.739,-0c-0,-0.152 -0.017,-0.3 -0.049,-0.442c0.009,0.055 0.017,0.11 0.025,0.165l-0.241,0.277Z" style="fill:#fff;"/></g><path d="M0.009,25l8.543,-25l38.489,0l-8.627,25l-38.405,0Zm2.797,-2l34.183,-0l7.246,-21l-34.253,-0l-7.176,21Z" style="fill:#fff;"/></g></svg>