<?xml version="1.0" encoding="UTF-8" standalone="no"?><!DOCTYPE svg PUBLIC "-//W3C//DTD SVG 1.1//EN" "http://www.w3.org/Graphics/SVG/1.1/DTD/svg11.dtd"><svg width="100%" height="100%" viewBox="0 0 41 25" version="1.1" xmlns="http://www.w3.org/2000/svg" xmlns:xlink="http://www.w3.org/1999/xlink" xml:space="preserve" xmlns:serif="http://www.serif.com/" style="fill-rule:evenodd;clip-rule:evenodd;stroke-linejoin:round;stroke-miterlimit:2;"><g><g><path d="M9.536,6.601l0,-2l2.394,0l0,5.729l0.042,-0c0.651,-1.085 2.016,-1.758 3.234,-1.758c3.423,-0 5.082,2.692 5.082,5.969c0,3.015 -1.469,5.858 -4.683,5.858c-1.47,-0 -3.045,-0.368 -3.759,-1.844l-0.042,-0l0,0.809c-0.226,-0.191 -0.436,-0.405 -0.627,-0.64l-0.868,0.867l0.806,0.505l-1.579,0l0,-13.495c0.691,0 1.299,-0.349 1.659,-0.882l-1.659,0.882Zm0.728,13.229c-0.024,-0.04 -0.048,-0.081 -0.071,-0.122l-0.013,0.013c0.026,0.037 0.054,0.074 0.084,0.109Zm4.627,-9.305c-2.016,0 -3.045,1.584 -3.045,3.971c0,2.257 1.113,3.95 3.045,3.95c2.184,0 3.003,-1.996 3.003,-3.95c-0.001,-2.039 -1.03,-3.971 -3.003,-3.971Z" style="fill:#fff;"/><path d="M30.812,12.631l-1.738,-0l-0.004,-0c-0.189,-1.368 -1.155,-2.106 -2.478,-2.106c-1.239,0 -2.982,0.673 -2.982,4.08c0,1.867 0.798,3.842 2.877,3.842c1.386,-0 2.352,-0.956 2.583,-2.562l2.394,0c-0.441,2.908 -2.184,4.514 -4.977,4.514c-3.402,-0 -5.271,-2.495 -5.271,-5.794c0,-3.385 1.785,-6.032 5.355,-6.032c2.52,-0 4.663,1.302 4.893,4.058l-0.39,-0c0,-0.148 -0.016,-0.293 -0.047,-0.432c0.009,0.052 0.017,0.105 0.024,0.158l-0.239,0.274Z" style="fill:#fff;"/></g><path d="M-0.016,23.5l7.453,-22l33.579,-0l-7.526,22l-33.506,-0Zm2.789,-2l29.287,-0c0,-0 6.158,-18 6.158,-18l-29.347,0l-6.098,18Z" style="fill:#fff;"/></g></svg>