<?xml version="1.0" encoding="UTF-8" standalone="no"?><!DOCTYPE svg PUBLIC "-//W3C//DTD SVG 1.1//EN" "http://www.w3.org/Graphics/SVG/1.1/DTD/svg11.dtd"><svg width="100%" height="100%" viewBox="0 0 30 25" version="1.1" xmlns="http://www.w3.org/2000/svg" xmlns:xlink="http://www.w3.org/1999/xlink" xml:space="preserve" xmlns:serif="http://www.serif.com/" style="fill-rule:evenodd;clip-rule:evenodd;stroke-linejoin:round;stroke-miterlimit:2;"><g><path d="M30,7.25l0,10.5c0,2.898 -2.352,5.25 -5.25,5.25l-19.5,0c-2.898,0 -5.25,-2.352 -5.25,-5.25l0,-10.5c0,-2.898 2.352,-5.25 5.25,-5.25l19.5,0c2.898,0 5.25,2.352 5.25,5.25Zm-2,0c0,-1.794 -1.456,-3.25 -3.25,-3.25l-19.5,0c-1.794,0 -3.25,1.456 -3.25,3.25l0,10.5c0,1.794 1.456,3.25 3.25,3.25l19.5,0c1.794,0 3.25,-1.456 3.25,-3.25l0,-10.5Z" style="fill:#fff;"/><path d="M16.853,14.559c-1.087,0.855 -2.619,0.855 -3.707,0.001l-9.834,-7.724c-0.905,-0.711 -1.26,-1.918 -0.884,-3.005c0.375,-1.088 1.399,-1.818 2.55,-1.819l20.039,-0.009c1.151,-0 2.176,0.729 2.553,1.817c0.377,1.088 0.022,2.294 -0.883,3.006l-9.834,7.733Zm-1.236,-1.573l9.834,-7.732c0.235,-0.185 0.327,-0.498 0.229,-0.78c-0.098,-0.282 -0.363,-0.471 -0.662,-0.471l-20.039,0.009c-0.298,0.001 -0.564,0.19 -0.661,0.472c-0.098,0.282 -0.006,0.595 0.229,0.779l9.834,7.724c0.363,0.285 0.874,0.284 1.236,-0.001Z" style="fill:#fff;"/></g></svg>