<?xml version="1.0" encoding="UTF-8" standalone="no"?><!DOCTYPE svg PUBLIC "-//W3C//DTD SVG 1.1//EN" "http://www.w3.org/Graphics/SVG/1.1/DTD/svg11.dtd"><svg width="100%" height="100%" viewBox="0 0 25 25" version="1.1" xmlns="http://www.w3.org/2000/svg" xmlns:xlink="http://www.w3.org/1999/xlink" xml:space="preserve" xmlns:serif="http://www.serif.com/" style="fill-rule:evenodd;clip-rule:evenodd;stroke-linejoin:round;stroke-miterlimit:2;"><path d="M12.497,6.077c3.519,0 6.416,2.897 6.416,6.416c-0,3.52 -2.897,6.417 -6.416,6.417c-3.52,-0 -6.417,-2.897 -6.417,-6.417c0,-3.519 2.897,-6.416 6.417,-6.416Zm-0,2c-2.423,0 -4.417,1.994 -4.417,4.416c0,2.423 1.994,4.417 4.417,4.417c2.422,-0 4.416,-1.994 4.416,-4.417c-0,-2.422 -1.994,-4.416 -4.416,-4.416Z" style="fill:#fff;"/><circle cx="19.167" cy="5.841" r="1.496" style="fill:#fff;"/><path d="M24.338,4.321c0.371,0.984 0.568,2.024 0.584,3.076c0.078,1.328 0.078,1.758 0.078,5.148c0,3.39 -0.018,3.813 -0.078,5.148c-0.021,1.038 -0.216,2.062 -0.581,3.033c-0.65,1.676 -1.977,3.003 -3.654,3.653c-0.971,0.364 -1.996,0.561 -3.033,0.582c-1.325,0.076 -1.759,0.076 -5.148,0.076c-3.388,0 -3.811,-0.018 -5.148,-0.076c-1.038,-0.034 -2.064,-0.246 -3.032,-0.625c-1.676,-0.649 -3.004,-1.975 -3.654,-3.652c-0.365,-0.972 -0.561,-1.996 -0.582,-3.034c-0.078,-1.328 -0.078,-1.76 -0.078,-5.148c0,-3.39 0.019,-3.813 0.078,-5.148c0.02,-1.037 0.217,-2.063 0.582,-3.033c0.648,-1.677 1.976,-3.005 3.653,-3.653c0.97,-0.365 1.995,-0.562 3.031,-0.582c1.325,-0.075 1.759,-0.075 5.147,-0.075c3.389,-0 3.812,0.016 5.148,0.075c1.037,0.021 2.063,0.218 3.034,0.582c1.676,0.649 3.004,1.976 3.653,3.653Zm-1.868,0.713l-0.002,-0.005c-0.447,-1.142 -1.353,-2.047 -2.502,-2.494c-0.755,-0.281 -1.551,-0.433 -2.356,-0.45c-0.015,-0 -0.03,-0.001 -0.046,-0.001c-1.313,-0.057 -1.729,-0.073 -5.061,-0.073c-3.314,-0 -3.738,-0.002 -5.035,0.072c-0.024,0.001 -0.049,0.002 -0.073,0.002c-0.806,0.016 -1.603,0.169 -2.363,0.454c-1.142,0.446 -2.047,1.351 -2.494,2.501c-0.281,0.753 -0.432,1.549 -0.448,2.353c-0.001,0.017 -0.001,0.033 -0.002,0.05c-0.058,1.312 -0.076,1.728 -0.076,5.059c0,3.311 -0.001,3.733 0.075,5.031c0.001,0.025 0.002,0.051 0.003,0.077c0.016,0.807 0.167,1.604 0.452,2.366c0.449,1.145 1.359,2.051 2.506,2.495l0.008,0.003c0.756,0.296 1.557,0.461 2.368,0.488c0.007,0 0.014,0 0.021,0.001c1.314,0.057 1.73,0.074 5.061,0.074c3.313,0 3.738,0.002 5.033,-0.073c0.025,-0.001 0.05,-0.002 0.074,-0.003c0.807,-0.016 1.606,-0.169 2.366,-0.452c1.142,-0.448 2.047,-1.354 2.496,-2.503c0.281,-0.754 0.432,-1.548 0.448,-2.353c0,-0.017 0.001,-0.033 0.001,-0.05c0.059,-1.311 0.076,-1.727 0.076,-5.058c-0,-3.313 0.002,-3.734 -0.074,-5.031c-0.002,-0.029 -0.003,-0.058 -0.003,-0.086c-0.013,-0.818 -0.166,-1.628 -0.453,-2.394Z" style="fill:#fff;"/></svg>