<?xml version="1.0" encoding="UTF-8" standalone="no"?><!DOCTYPE svg PUBLIC "-//W3C//DTD SVG 1.1//EN" "http://www.w3.org/Graphics/SVG/1.1/DTD/svg11.dtd"><svg width="100%" height="100%" viewBox="0 0 43 25" version="1.1" xmlns="http://www.w3.org/2000/svg" xmlns:xlink="http://www.w3.org/1999/xlink" xml:space="preserve" xmlns:serif="http://www.serif.com/" style="fill-rule:evenodd;clip-rule:evenodd;stroke-linejoin:round;stroke-miterlimit:2;"><g id="Orange"><path d="M42.533,16.563c-0.187,3.329 -3.002,5.944 -6.336,5.898l-15.23,-0c-0.693,-0.007 -1.261,-0.577 -1.264,-1.27l-0,-16.389c-0.023,-0.575 0.312,-1.107 0.84,-1.335c0.528,-0.228 1.401,-0.972 4.352,-0.972c1.802,-0.002 3.572,0.484 5.121,1.407c2.442,1.437 4.173,3.834 4.768,6.605c0.526,-0.149 1.07,-0.223 1.616,-0.221l0.038,0c3.345,0 6.098,2.753 6.098,6.098c0,0.06 -0.001,0.119 -0.003,0.179Zm-20.83,3.898l14.494,-0c0.009,-0 0.019,-0 0.028,-0c2.259,0.031 4.171,-1.733 4.31,-3.986l0,-0.014c0.001,-0.026 0.001,-0.051 0.001,-0.077c0,-2.248 -1.85,-4.098 -4.098,-4.098l-0.038,0l-0.009,0c-0.359,-0.001 -0.717,0.047 -1.063,0.145c-0.532,0.15 -1.102,0.074 -1.575,-0.211c-0.474,-0.285 -0.808,-0.753 -0.924,-1.293c-0.478,-2.224 -1.867,-4.148 -3.827,-5.301c-0.004,-0.002 -0.007,-0.004 -0.01,-0.006c-1.239,-0.738 -2.654,-1.127 -4.095,-1.125l-0.002,-0c-1.851,-0 -2.701,0.365 -3.192,0.619c-0,1.943 -0,12.479 -0,15.347Z" style="fill:#fff;"/><path d="M18.712,22.451c-0,0.552 -0.448,1 -1,1c-0.552,-0 -1,-0.448 -1,-1l-0,-17.66c-0,-0.552 0.448,-1 1,-1c0.552,0 1,0.448 1,1l-0,17.66Z" style="fill:#fff;"/><path d="M16.008,22.505c-0.001,0.552 -0.449,1 -1.001,1c-0.552,-0 -1,-0.448 -0.999,-1l0.002,-15.721c0,-0.552 0.449,-1 1.001,-0.999c0.551,-0 0.999,0.448 0.999,1l-0.002,15.72Z" style="fill:#fff;"/><path d="M13.332,22.505c-0,0.552 -0.448,1 -1,1c-0.552,-0 -1,-0.448 -1,-1l0.003,-16.187c-0,-0.552 0.448,-1 1,-1c0.552,0.001 1,0.449 1,1.001l-0.003,16.186Z" style="fill:#fff;"/><path d="M10.644,22.504c0.001,0.552 -0.447,1.001 -0.999,1.001c-0.552,0 -1,-0.447 -1.001,-0.999l-0.009,-14.817c-0,-0.552 0.448,-1 1,-1.001c0.551,0 1,0.448 1,1l0.009,14.816Z" style="fill:#fff;"/><path d="M7.944,22.505c0,0.552 -0.448,1 -1,1c-0.552,0 -1,-0.448 -1,-1l0.001,-11.478c-0,-0.552 0.448,-1 1,-1c0.552,-0 1,0.448 1,1l-0.001,11.478Z" style="fill:#fff;"/><path d="M5.254,22.505c0.001,0.551 -0.447,1 -0.999,1c-0.552,0 -1,-0.447 -1.001,-0.999l-0.006,-11.965c-0.001,-0.552 0.447,-1.001 0.999,-1.001c0.552,-0 1,0.448 1.001,1l0.006,11.965Z" style="fill:#fff;"/><path d="M2.543,20.823c0,0.552 -0.447,1 -0.999,1.001c-0.552,0 -1.001,-0.448 -1.001,-1l-0.007,-8.566c-0,-0.552 0.447,-1.001 0.999,-1.001c0.552,-0.001 1.001,0.447 1.001,0.999l0.007,8.567Z" style="fill:#fff;"/></g></svg>