<?xml version="1.0" encoding="UTF-8" standalone="no"?><!DOCTYPE svg PUBLIC "-//W3C//DTD SVG 1.1//EN" "http://www.w3.org/Graphics/SVG/1.1/DTD/svg11.dtd"><svg width="100%" height="100%" viewBox="0 0 53 25" version="1.1" xmlns="http://www.w3.org/2000/svg" xmlns:xlink="http://www.w3.org/1999/xlink" xml:space="preserve" xmlns:serif="http://www.serif.com/" style="fill-rule:evenodd;clip-rule:evenodd;stroke-linejoin:round;stroke-miterlimit:2;"><g id="Orange"><path d="M52.859,17.576c-0.234,4.159 -3.752,7.426 -7.917,7.369l-19.028,-0c-0.866,-0.009 -1.575,-0.721 -1.579,-1.587l0,-20.476c-0.028,-0.718 0.39,-1.383 1.05,-1.668c0.66,-0.285 1.75,-1.214 5.437,-1.214c2.252,-0.002 4.463,0.605 6.397,1.758c3.052,1.795 5.214,4.79 5.958,8.251c0.657,-0.185 1.336,-0.278 2.018,-0.275l0.048,0c4.18,0 7.619,3.439 7.619,7.619c0,0.074 -0.001,0.148 -0.003,0.223Zm-26.524,5.369l18.607,-0c0.01,-0 0.019,-0 0.028,-0c3.091,0.043 5.704,-2.374 5.89,-5.457l0.001,-0.024c0.001,-0.037 0.001,-0.074 0.001,-0.111c0,-3.083 -2.536,-5.619 -5.619,-5.619l-0.048,0l-0.008,0c-0.496,-0.002 -0.989,0.065 -1.466,0.2c-0.532,0.15 -1.102,0.074 -1.575,-0.211c-0.474,-0.285 -0.808,-0.753 -0.924,-1.293c-0.627,-2.914 -2.447,-5.437 -5.017,-6.948c-0.003,-0.002 -0.006,-0.004 -0.01,-0.006c-1.624,-0.968 -3.48,-1.478 -5.371,-1.476l-0.002,0c-2.876,0 -3.901,0.672 -4.487,0.974c0,1.25 0,17.213 0,19.971Z" style="fill:#fff;"/><path d="M22.848,24.932c-0,0.552 -0.449,1 -1,1c-0.552,0 -1,-0.448 -1,-1l-0,-22.063c-0,-0.552 0.448,-1 1,-1c0.551,-0 1,0.448 1,1l-0,22.063Z" style="fill:#fff;"/><path d="M19.469,25c-0,0.552 -0.448,1 -1,1c-0.552,-0 -1,-0.448 -1,-1l0.003,-19.641c0,-0.552 0.449,-1 1,-1c0.552,0 1,0.449 1,1l-0.003,19.641Z" style="fill:#fff;"/><path d="M16.126,25c-0,0.552 -0.448,1 -1,1c-0.552,-0 -1,-0.448 -1,-1l0.003,-20.223c0.001,-0.552 0.449,-1 1.001,-1c0.552,0 1,0.448 0.999,1l-0.003,20.223Z" style="fill:#fff;"/><path d="M12.768,24.999c0.001,0.552 -0.447,1.001 -0.999,1.001c-0.552,0 -1,-0.447 -1.001,-0.999l-0.011,-18.512c-0.001,-0.552 0.447,-1 0.999,-1c0.552,-0.001 1,0.447 1.001,0.999l0.011,18.511Z" style="fill:#fff;"/><path d="M9.395,25c-0,0.552 -0.448,1 -1,1c-0.552,-0 -1,-0.448 -1,-1l0,-14.341c0,-0.552 0.449,-1 1,-1c0.552,0 1,0.448 1,1l-0,14.341Z" style="fill:#fff;"/><path d="M6.034,24.999c0.001,0.552 -0.447,1.001 -0.999,1.001c-0.552,0 -1,-0.448 -1.001,-0.999l-0.008,-14.949c-0.001,-0.552 0.447,-1 0.999,-1.001c0.552,0 1,0.448 1.001,1l0.008,14.948Z" style="fill:#fff;"/><path d="M2.646,22.898c0.001,0.552 -0.447,1.001 -0.999,1.001c-0.552,0.001 -1,-0.447 -1.001,-0.999l-0.008,-10.703c-0,-0.552 0.447,-1 0.999,-1.001c0.552,-0 1.001,0.447 1.001,0.999l0.008,10.703Z" style="fill:#fff;"/></g></svg>