<?xml version="1.0" encoding="UTF-8" standalone="no"?><!DOCTYPE svg PUBLIC "-//W3C//DTD SVG 1.1//EN" "http://www.w3.org/Graphics/SVG/1.1/DTD/svg11.dtd"><svg width="100%" height="100%" viewBox="0 0 43 25" version="1.1" xmlns="http://www.w3.org/2000/svg" xmlns:xlink="http://www.w3.org/1999/xlink" xml:space="preserve" xmlns:serif="http://www.serif.com/" style="fill-rule:evenodd;clip-rule:evenodd;stroke-linejoin:round;stroke-miterlimit:2;"><g id="Orange"><path d="M42.533,17.231c-0.187,3.486 -3.002,6.226 -6.336,6.177l-15.23,0c-0.693,-0.007 -1.261,-0.604 -1.264,-1.33l-0,-17.167c-0.023,-0.602 0.312,-1.159 0.84,-1.398c0.528,-0.239 1.401,-1.018 4.352,-1.018c1.802,-0.002 3.572,0.507 5.121,1.474c2.442,1.505 4.173,4.016 4.768,6.918c0.526,-0.156 1.07,-0.234 1.616,-0.231l0.038,-0c3.345,-0 6.098,2.883 6.098,6.387c0,0.063 -0.001,0.125 -0.003,0.188Zm-20.83,4.177l14.494,0c0.01,0 0.02,0 0.029,0c2.282,0.034 4.17,-1.877 4.309,-4.261l0,-0.017c0.001,-0.029 0.001,-0.058 0.001,-0.087c0,-2.382 -1.824,-4.387 -4.098,-4.387l-0.038,-0l-0.01,-0c-0.351,-0.002 -0.7,0.048 -1.038,0.148c-0.537,0.159 -1.116,0.086 -1.597,-0.202c-0.48,-0.288 -0.818,-0.765 -0.93,-1.313c-0.483,-2.354 -1.878,-4.397 -3.859,-5.617c-0.003,-0.003 -0.006,-0.005 -0.01,-0.007c-1.227,-0.766 -2.63,-1.172 -4.059,-1.17l-0.002,-0c-1.871,-0 -2.71,0.395 -3.192,0.66l-0,16.253Z" style="fill:#fff;"/><path d="M18.712,22.329c-0,0.551 -0.448,1 -1,1c-0.552,-0 -1,-0.449 -1,-1l-0,-16.538c-0,-0.552 0.448,-1 1,-1c0.552,0 1,0.448 1,1l-0,16.538Z" style="fill:#fff;"/><path d="M16.008,22.383c-0.001,0.552 -0.449,1 -1.001,1c-0.552,-0 -1,-0.448 -0.999,-1l0.002,-14.599c0,-0.552 0.449,-1 1.001,-0.999c0.551,-0 0.999,0.448 0.999,1l-0.002,14.598Z" style="fill:#fff;"/><path d="M13.332,22.383c-0,0.552 -0.448,1 -1,1c-0.552,-0 -1,-0.448 -1,-1l0.003,-15.065c-0,-0.552 0.448,-1 1,-1c0.552,0.001 1,0.449 1,1.001l-0.003,15.064Z" style="fill:#fff;"/><path d="M10.644,22.382c0.001,0.552 -0.447,1 -0.999,1.001c-0.552,0 -1,-0.448 -1.001,-1l-0.009,-13.694c-0,-0.552 0.448,-1 1,-1.001c0.551,0 1,0.448 1,1l0.009,13.694Z" style="fill:#fff;"/><path d="M7.944,22.383c0,0.552 -0.448,1 -1,1c-0.552,-0 -1,-0.448 -1,-1l0.001,-10.356c-0,-0.552 0.448,-1 1,-1c0.552,-0 1,0.448 1,1l-0.001,10.356Z" style="fill:#fff;"/><path d="M5.254,22.382c0.001,0.552 -0.447,1 -0.999,1.001c-0.552,0 -1,-0.448 -1.001,-1l-0.006,-10.842c-0.001,-0.552 0.447,-1.001 0.999,-1.001c0.552,-0 1,0.448 1.001,1l0.006,10.842Z" style="fill:#fff;"/><path d="M2.543,20.823c0,0.552 -0.447,1 -0.999,1.001c-0.552,0 -1.001,-0.448 -1.001,-1l-0.007,-7.566c-0,-0.552 0.447,-1.001 0.999,-1.001c0.552,-0.001 1.001,0.447 1.001,0.999l0.007,7.567Z" style="fill:#fff;"/></g></svg>