<?xml version="1.0" encoding="UTF-8" standalone="no"?><!DOCTYPE svg PUBLIC "-//W3C//DTD SVG 1.1//EN" "http://www.w3.org/Graphics/SVG/1.1/DTD/svg11.dtd"><svg width="100%" height="100%" viewBox="0 0 30 25" version="1.1" xmlns="http://www.w3.org/2000/svg" xmlns:xlink="http://www.w3.org/1999/xlink" xml:space="preserve" xmlns:serif="http://www.serif.com/" style="fill-rule:evenodd;clip-rule:evenodd;stroke-linejoin:round;stroke-miterlimit:2;"><path d="M26.322,0.28l0.017,-0.007c0.967,-0.426 1.908,-0.235 2.525,0.362c0.542,0.523 0.9,1.445 0.583,2.742l-4.116,19.397c-0.23,1.099 -0.762,1.722 -1.381,2c-0.622,0.28 -1.43,0.253 -2.357,-0.257c-0.039,-0.021 -0.076,-0.045 -0.112,-0.071c0,-0 -5.593,-4.132 -5.593,-4.132l-2.409,2.342l-0.002,0.003c-0.54,0.521 -0.99,0.908 -1.952,0.908c-0.277,0 -0.541,-0.115 -0.73,-0.317c-0.189,-0.202 -0.286,-0.473 -0.268,-0.75l0.429,-6.403c0.017,-0.254 0.13,-0.498 0.328,-0.677l5.801,-5.235l-8.116,5.12c-0.248,0.157 -0.551,0.197 -0.831,0.109c-0,0 -6.212,-1.937 -6.208,-1.936c-1.301,-0.399 -1.742,-1.251 -1.671,-1.959c0.059,-0.586 0.567,-1.387 1.895,-1.92c0.004,-0.002 0.009,-0.004 0.013,-0.005l24.155,-9.314Zm-13.397,16.354l-0.27,4.035l2.447,-2.381c0.351,-0.341 0.898,-0.378 1.292,-0.087c-0,0 6.218,4.593 6.223,4.596c0.123,0.064 0.239,0.112 0.348,0.138c0.062,0.015 0.117,0.037 0.164,0.016c0.047,-0.022 0.067,-0.078 0.098,-0.136c0.063,-0.123 0.109,-0.273 0.146,-0.449l0.001,-0.004l4.119,-19.416c0.003,-0.012 0.006,-0.023 0.008,-0.035c0.097,-0.388 0.135,-0.682 -0.027,-0.838c-0.083,-0.08 -0.21,-0.024 -0.34,0.035c-0.017,0.007 -0.034,0.015 -0.052,0.022c-0,-0 -24.188,9.327 -24.188,9.327c-0.108,0.043 -0.207,0.088 -0.297,0.134c0.672,0.209 5.696,1.777 5.696,1.777l13.982,-8.822c0.004,-0.003 0.009,-0.006 0.014,-0.009c0.428,-0.261 0.85,-0.358 1.164,-0.364l0.538,0.085l0.42,0.25l0.166,0.189l0.13,0.24l0.069,0.267l0.005,0.26l-0.057,0.271l-0.095,0.218c0,0 -0.357,0.436 -0.361,0.443l-11.343,10.238Zm-0.974,0.529c-0.157,-0 -0.308,-0.038 -0.443,-0.105l-0.004,-0.001c0.264,0.132 0.447,0.106 0.447,0.106Z" style="fill:#fff;"/></svg>