<?xml version="1.0" encoding="UTF-8" standalone="no"?><!DOCTYPE svg PUBLIC "-//W3C//DTD SVG 1.1//EN" "http://www.w3.org/Graphics/SVG/1.1/DTD/svg11.dtd"><svg width="100%" height="100%" viewBox="0 0 28 25" version="1.1" xmlns="http://www.w3.org/2000/svg" xmlns:xlink="http://www.w3.org/1999/xlink" xml:space="preserve" xmlns:serif="http://www.serif.com/" style="fill-rule:evenodd;clip-rule:evenodd;stroke-linejoin:round;stroke-miterlimit:2;"><path d="M24.414,1.237l0.015,-0.007c0.921,-0.404 1.815,-0.219 2.403,0.349c0.512,0.495 0.857,1.365 0.557,2.59l-3.767,17.752c-0.217,1.041 -0.726,1.627 -1.312,1.891c-0.589,0.265 -1.355,0.244 -2.233,-0.239c-0.039,-0.021 -0.076,-0.045 -0.112,-0.071c0,-0 -5.061,-3.739 -5.061,-3.739l-2.153,2.094l-0.003,0.002c-0.509,0.492 -0.936,0.855 -1.845,0.855c-0.276,0 -0.541,-0.114 -0.73,-0.317c-0.189,-0.202 -0.286,-0.473 -0.267,-0.75l0.392,-5.86c0.017,-0.267 0.141,-0.521 0.355,-0.7l4.504,-3.78l-6.576,3.85c-0.243,0.142 -0.535,0.175 -0.803,0.091c-0,0 -5.686,-1.773 -5.681,-1.772c-0.615,-0.188 -1.023,-0.484 -1.258,-0.782l-0.153,-0.231l-0.116,-0.269l-0.062,-0.296l-0.001,-0.304c0.056,-0.556 0.529,-1.322 1.788,-1.828c0.004,-0.002 0.008,-0.003 0.013,-0.005l22.106,-8.524Zm-12.149,15.108l-0.229,3.417l2.082,-2.025c0.351,-0.341 0.898,-0.378 1.291,-0.087c0,-0 5.681,4.196 5.683,4.197c0.15,0.071 0.338,0.118 0.395,0.132c0.017,-0.024 0.047,-0.068 0.063,-0.101c0.048,-0.103 0.085,-0.225 0.114,-0.365l0.001,-0.004l3.771,-17.771c0.002,-0.011 0.005,-0.023 0.008,-0.034c0.053,-0.214 0.071,-0.399 0.045,-0.554c-0.01,-0.055 -0.005,-0.109 -0.043,-0.13c-0.063,-0.034 -0.139,0.008 -0.221,0.046c-0.018,0.007 -0.035,0.015 -0.053,0.022c0,-0 -22.136,8.536 -22.136,8.536c-0.022,0.009 -0.045,0.019 -0.068,0.029l4.984,1.555c-0,-0 13.07,-7.652 13.07,-7.652c0.405,-0.243 0.802,-0.334 1.099,-0.339l0.522,0.082l0.413,0.246l0.165,0.187l0.127,0.237l0.069,0.264l0.005,0.257l-0.056,0.267l-0.093,0.214l-0.354,0.433c-0.007,0.006 -0.014,0.012 -0.021,0.018l-10.633,8.923Zm-0.972,0.508c-0.157,-0.001 -0.307,-0.038 -0.442,-0.105l-0.005,-0.001c0.264,0.132 0.447,0.106 0.447,0.106Z" style="fill:#fff;"/></svg>